# xmcd
# 
# Track frame offsets:
#     150
#     13052
#     24330
#     37800
#     51210
#     64147
#     74912
#     86815
#     99760
#     112640
#     125010
#     138592
#     150605
#     162117
#     174877
#     188305
#     199687
#     211705
#     222922
#     234200
# 
# Disc length: 3279
# 
# Revision: 11
# Processed by: cddbd v1.5.2PL0 Copyright (c) Steve Scherf et al.
# Submitted via: fre:ac v1.0.17
# 
DISCID=fe0ccd14
DTITLE=Robert Johnson - The Complete Recordings [CD1]
DYEAR=1936
DGENRE=Blues
TTITLE0=Kind Hearted Woman Blues (Take 1)
TTITLE1=Kind Hearted Woman Blues (Take 2)
TTITLE2=I Believe I'll Dust My Broom
TTITLE3=Sweet Home Chicago
TTITLE4=Ramblin' On My Mind (Take 1)
TTITLE5=Ramblin' On My Mind (Take 2)
TTITLE6=When You Got A Good Friend (Take 1)
TTITLE7=When You Got A Good Friend (Take 2)
TTITLE8=Come On In My Kitchen (Take 1)
TTITLE9=Come On In My Kitchen (Take 2)
TTITLE10=Terraplane Blues
TTITLE11=Phonograph Blues (Take 1)
TTITLE12=Phonograph Blues (Take 2)
TTITLE13=32-20 Blues
TTITLE14=They're Red Hot
TTITLE15=Dead Shrimp Blues
TTITLE16=Cross Road Blues (Take 1)
TTITLE17=Cross Road Blues (Take 2)
TTITLE18=Walkin' Blues
TTITLE19=Last Fair Deal Gone Down
EXTD=
EXTT0=
EXTT1=
EXTT2=
EXTT3=
EXTT4=
EXTT5=
EXTT6=
EXTT7=
EXTT8=
EXTT9=
EXTT10=
EXTT11=
EXTT12=
EXTT13=
EXTT14=
EXTT15=
EXTT16=
EXTT17=
EXTT18=
EXTT19=
PLAYORDER=
